M48
; DRILL file {KiCad 9.0.5} date 2025-10-31T11:58:59+0530
; FORMAT={-:-/ absolute / metric / decimal}
; #@! TF.CreationDate,2025-10-31T11:58:59+05:30
; #@! TF.GenerationSoftware,Kicad,Pcbnew,9.0.5
; #@! TF.FileFunction,Plated,1,2,PTH
FMAT,2
METRIC
; #@! TA.AperFunction,Plated,PTH,ViaDrill
T1C0.300
; #@! TA.AperFunction,Plated,PTH,ComponentDrill
T2C0.500
; #@! TA.AperFunction,Plated,PTH,ComponentDrill
T3C0.800
; #@! TA.AperFunction,Plated,PTH,ComponentDrill
T4C0.850
; #@! TA.AperFunction,Plated,PTH,ComponentDrill
T5C3.200
%
G90
G05
T1
X111.998Y-94.59
X115.722Y-91.338
X116.23Y-95.809
X116.543Y-105.862
X116.543Y-106.5
X116.543Y-107.138
X116.543Y-107.776
X116.555Y-99.094
X116.555Y-99.732
X116.555Y-100.37
X116.95Y-87.782
X117.181Y-105.862
X117.181Y-106.5
X117.181Y-107.138
X117.181Y-107.776
X117.181Y-108.414
X117.193Y-99.094
X117.193Y-99.732
X117.193Y-100.37
X117.819Y-105.862
X117.819Y-106.5
X117.819Y-107.138
X117.819Y-107.776
X117.819Y-108.414
X117.831Y-99.094
X117.831Y-99.732
X117.831Y-100.37
X118.457Y-105.862
X118.457Y-106.5
X118.457Y-107.138
X118.457Y-107.776
X118.457Y-108.414
X118.469Y-99.094
X118.469Y-99.732
X118.469Y-100.37
X119.34Y-88.392
X119.34Y-89.092
X119.34Y-89.792
X119.482Y-110.592
X119.482Y-111.292
X119.482Y-111.992
X119.482Y-112.692
X119.482Y-113.392
X119.482Y-114.092
X119.482Y-114.792
X120.04Y-88.392
X120.04Y-89.092
X120.04Y-89.792
X120.182Y-110.592
X120.182Y-111.292
X120.182Y-111.992
X120.182Y-112.692
X120.182Y-113.392
X120.182Y-114.092
X120.182Y-114.792
X120.882Y-110.592
X120.882Y-111.292
X120.882Y-111.992
X120.882Y-112.692
X120.882Y-113.392
X120.882Y-114.092
X120.882Y-114.792
X121.582Y-110.592
X121.582Y-111.292
X121.582Y-111.992
X121.582Y-112.692
X121.582Y-113.392
X121.582Y-114.092
X121.582Y-114.792
X122.282Y-110.592
X122.282Y-111.292
X122.282Y-111.992
X122.282Y-112.692
X122.282Y-113.392
X122.282Y-114.092
X122.282Y-114.792
X122.982Y-110.592
X122.982Y-111.292
X122.982Y-111.992
X122.982Y-112.692
X122.982Y-113.392
X122.982Y-114.092
X122.982Y-114.792
X123.682Y-110.592
X123.682Y-111.292
X123.682Y-111.992
X123.682Y-112.692
X123.682Y-113.392
X123.682Y-114.092
X123.682Y-114.792
X124.382Y-110.592
X124.382Y-111.292
X124.382Y-111.992
X124.382Y-112.692
X124.382Y-113.392
X124.382Y-114.092
X124.382Y-114.792
X125.082Y-110.592
X125.082Y-111.292
X125.082Y-111.992
X125.082Y-112.692
X125.082Y-113.392
X125.082Y-114.092
X125.082Y-114.792
X125.782Y-110.592
X125.782Y-111.292
X125.782Y-111.992
X125.782Y-112.692
X125.782Y-113.392
X125.782Y-114.092
X125.782Y-114.792
X126.482Y-110.592
X126.482Y-111.292
X126.482Y-111.992
X126.482Y-112.692
X126.482Y-113.392
X126.482Y-114.092
X126.482Y-114.792
X127.182Y-110.592
X127.182Y-111.292
X127.182Y-111.992
X127.182Y-112.692
X127.182Y-113.392
X127.182Y-114.092
X127.182Y-114.792
X127.882Y-110.592
X127.882Y-111.292
X127.882Y-111.992
X127.882Y-112.692
X127.882Y-113.392
X127.882Y-114.092
X127.882Y-114.792
X128.575Y-98.163
X128.575Y-98.863
X128.575Y-99.563
X128.575Y-100.263
X128.575Y-100.963
X128.575Y-101.663
X128.575Y-102.363
X128.575Y-103.063
X128.575Y-103.763
X128.575Y-104.463
X128.575Y-105.163
X128.575Y-105.863
X128.575Y-106.563
X128.575Y-107.263
X128.575Y-107.963
X128.582Y-110.592
X128.582Y-111.292
X128.582Y-111.992
X128.582Y-112.692
X128.582Y-113.392
X128.582Y-114.092
X128.582Y-114.792
X129.275Y-98.163
X129.275Y-98.863
X129.275Y-99.563
X129.275Y-100.263
X129.275Y-100.963
X129.275Y-101.663
X129.275Y-102.363
X129.275Y-103.063
X129.275Y-103.763
X129.275Y-104.463
X129.275Y-105.163
X129.275Y-105.863
X129.275Y-106.563
X129.275Y-107.263
X129.275Y-107.963
X129.282Y-110.592
X129.282Y-111.292
X129.282Y-111.992
X129.282Y-112.692
X129.282Y-113.392
X129.282Y-114.092
X129.282Y-114.792
X129.975Y-98.163
X129.975Y-98.863
X129.975Y-99.563
X129.975Y-100.263
X129.975Y-100.963
X129.975Y-101.663
X129.975Y-102.363
X129.975Y-103.063
X129.975Y-103.763
X129.975Y-104.463
X129.975Y-105.163
X129.975Y-105.863
X129.975Y-106.563
X129.975Y-107.263
X129.975Y-107.963
X129.982Y-110.592
X129.982Y-111.292
X129.982Y-111.992
X129.982Y-112.692
X129.982Y-113.392
X129.982Y-114.092
X129.982Y-114.792
X130.675Y-98.163
X130.675Y-98.863
X130.675Y-99.563
X130.675Y-100.263
X130.675Y-100.963
X130.675Y-101.663
X130.675Y-102.363
X130.675Y-103.063
X130.675Y-103.763
X130.675Y-104.463
X130.675Y-105.163
X130.675Y-105.863
X130.675Y-106.563
X130.675Y-107.263
X130.675Y-107.963
X130.682Y-110.592
X130.682Y-111.292
X130.682Y-111.992
X130.682Y-112.692
X130.682Y-113.392
X130.682Y-114.092
X130.682Y-114.792
X131.382Y-110.592
X131.382Y-111.292
X131.382Y-111.992
X131.382Y-112.692
X131.382Y-113.392
X131.382Y-114.092
X131.382Y-114.792
X132.69Y-87.688
X133.031Y-77.327
X133.031Y-79.052
X134.504Y-77.327
X134.504Y-79.052
X135.23Y-102.616
X137.566Y-102.616
X137.77Y-97.316
X137.77Y-98.016
X137.77Y-98.716
X137.77Y-99.416
X138.39Y-93.98
X139.09Y-93.98
X139.369Y-79.527
X139.79Y-93.98
X140.49Y-93.98
X143.053Y-86.157
X145.034Y-96.266
X146.799Y-111.268
X146.799Y-111.968
X146.799Y-112.668
X146.799Y-113.368
X146.799Y-114.068
X146.799Y-114.768
X147.499Y-111.268
X147.499Y-111.968
X147.499Y-112.668
X147.499Y-113.368
X147.499Y-114.068
X147.499Y-114.768
X148.199Y-111.268
X148.199Y-111.968
X148.199Y-112.668
X148.199Y-113.368
X148.199Y-114.068
X148.199Y-114.768
X148.742Y-78.905
X148.899Y-111.268
X148.899Y-111.968
X148.899Y-112.668
X148.899Y-113.368
X148.899Y-114.068
X148.899Y-114.768
X149.599Y-111.268
X149.599Y-111.968
X149.599Y-112.668
X149.599Y-113.368
X149.599Y-114.068
X149.599Y-114.768
X150.299Y-111.268
X150.299Y-111.968
X150.299Y-112.668
X150.299Y-113.368
X150.299Y-114.068
X150.299Y-114.768
X150.47Y-78.942
X150.52Y-86.36
X150.52Y-87.06
X150.52Y-87.76
X150.52Y-88.46
X150.52Y-89.16
X150.52Y-89.86
X150.52Y-90.56
X150.52Y-91.26
X150.52Y-91.96
X150.52Y-92.66
X150.52Y-93.36
X150.52Y-94.06
X150.52Y-94.76
X150.52Y-95.46
X150.52Y-96.16
X150.52Y-96.86
X150.52Y-97.56
X150.52Y-98.26
X150.999Y-111.268
X150.999Y-111.968
X150.999Y-112.668
X150.999Y-113.368
X150.999Y-114.068
X150.999Y-114.768
X151.0Y-101.927
X151.0Y-102.627
X151.0Y-103.327
X151.22Y-86.36
X151.22Y-87.06
X151.22Y-87.76
X151.22Y-88.46
X151.22Y-89.16
X151.22Y-89.86
X151.22Y-90.56
X151.22Y-91.26
X151.22Y-91.96
X151.22Y-92.66
X151.22Y-93.36
X151.22Y-94.06
X151.22Y-94.76
X151.22Y-95.46
X151.22Y-96.16
X151.22Y-96.86
X151.22Y-97.56
X151.22Y-98.26
X151.699Y-111.268
X151.699Y-111.968
X151.699Y-112.668
X151.699Y-113.368
X151.699Y-114.068
X151.699Y-114.768
X151.7Y-101.927
X151.7Y-102.627
X151.7Y-103.327
X151.92Y-86.36
X151.92Y-87.06
X151.92Y-87.76
X151.92Y-88.46
X151.92Y-89.16
X151.92Y-89.86
X151.92Y-90.56
X151.92Y-91.26
X151.92Y-91.96
X151.92Y-92.66
X151.92Y-93.36
X151.92Y-94.06
X151.92Y-94.76
X151.92Y-95.46
X151.92Y-96.16
X151.92Y-96.86
X151.92Y-97.56
X151.92Y-98.26
X152.146Y-78.942
X152.399Y-111.268
X152.399Y-111.968
X152.399Y-112.668
X152.399Y-113.368
X152.399Y-114.068
X152.399Y-114.768
X152.4Y-101.927
X152.4Y-102.627
X152.4Y-103.327
X152.62Y-86.36
X152.62Y-87.06
X152.62Y-87.76
X152.62Y-88.46
X152.62Y-89.16
X152.62Y-89.86
X152.62Y-90.56
X152.62Y-91.26
X152.62Y-91.96
X152.62Y-92.66
X152.62Y-93.36
X152.62Y-94.06
X152.62Y-94.76
X152.62Y-95.46
X152.62Y-96.16
X152.62Y-96.86
X152.62Y-97.56
X152.62Y-98.26
X153.099Y-111.268
X153.099Y-111.968
X153.099Y-112.668
X153.099Y-113.368
X153.099Y-114.068
X153.099Y-114.768
X153.32Y-86.36
X153.32Y-87.06
X153.32Y-87.76
X153.32Y-88.46
X153.32Y-89.16
X153.32Y-89.86
X153.32Y-90.56
X153.32Y-91.26
X153.32Y-91.96
X153.32Y-92.66
X153.32Y-93.36
X153.32Y-94.06
X153.32Y-94.76
X153.32Y-95.46
X153.32Y-96.16
X153.32Y-96.86
X153.32Y-97.56
X153.32Y-98.26
X153.799Y-111.268
X153.799Y-111.968
X153.799Y-112.668
X153.799Y-113.368
X153.799Y-114.068
X153.799Y-114.768
X154.02Y-86.36
X154.02Y-87.06
X154.02Y-87.76
X154.02Y-88.46
X154.02Y-89.16
X154.02Y-89.86
X154.02Y-90.56
X154.02Y-91.26
X154.02Y-91.96
X154.02Y-92.66
X154.02Y-93.36
X154.02Y-94.06
X154.02Y-94.76
X154.02Y-95.46
X154.02Y-96.16
X154.02Y-96.86
X154.02Y-97.56
X154.02Y-98.26
X154.499Y-111.268
X154.499Y-111.968
X154.499Y-112.668
X154.499Y-113.368
X154.499Y-114.068
X154.499Y-114.768
X154.72Y-86.36
X154.72Y-87.06
X154.72Y-87.76
X154.72Y-88.46
X154.72Y-89.16
X154.72Y-89.86
X154.72Y-90.56
X154.72Y-91.26
X154.72Y-91.96
X154.72Y-92.66
X154.72Y-93.36
X154.72Y-94.06
X154.72Y-94.76
X154.72Y-95.46
X154.72Y-96.16
X154.72Y-96.86
X154.72Y-97.56
X154.72Y-98.26
X155.199Y-111.268
X155.199Y-111.968
X155.199Y-112.668
X155.199Y-113.368
X155.199Y-114.068
X155.199Y-114.768
X155.899Y-111.268
X155.899Y-111.968
X155.899Y-112.668
X155.899Y-113.368
X155.899Y-114.068
X155.899Y-114.768
X155.905Y-93.37
X156.48Y-84.308
X156.599Y-111.268
X156.599Y-111.968
X156.599Y-112.668
X156.599Y-113.368
X156.599Y-114.068
X156.599Y-114.768
X157.277Y-99.099
X157.277Y-100.749
X157.299Y-111.268
X157.299Y-111.968
X157.299Y-112.668
X157.299Y-113.368
X157.299Y-114.068
X157.299Y-114.768
X157.999Y-112.668
X157.999Y-113.368
X157.999Y-114.068
X157.999Y-114.768
X158.496Y-77.622
X158.648Y-110.693
X158.699Y-112.668
X158.699Y-113.368
X158.699Y-114.068
X158.699Y-114.768
X158.902Y-100.749
X158.902Y-102.393
X159.256Y-93.925
X159.256Y-97.154
X159.487Y-103.043
X159.916Y-95.195
X159.916Y-96.528
X160.172Y-91.237
X160.772Y-91.897
X161.036Y-77.622
X161.036Y-89.052
X163.453Y-93.395
X163.458Y-104.047
X163.74Y-100.829
X164.801Y-102.376
X164.801Y-103.014
X164.846Y-77.622
X164.846Y-89.052
X165.439Y-101.738
X165.439Y-102.376
X165.439Y-103.014
X165.439Y-103.652
X165.439Y-104.29
X166.077Y-102.376
X166.077Y-103.014
X166.077Y-103.652
X166.116Y-84.328
X166.167Y-105.541
X166.201Y-100.756
X166.268Y-98.386
X166.715Y-102.376
X166.715Y-103.014
X166.715Y-103.652
X166.878Y-92.599
X167.217Y-100.756
X167.353Y-102.376
X167.353Y-103.014
X167.894Y-87.75
X168.097Y-98.372
X168.233Y-100.756
X168.357Y-104.031
X168.859Y-81.229
X169.294Y-108.296
X169.316Y-82.093
X169.531Y-99.559
X169.723Y-83.007
X170.078Y-107.696
X171.061Y-107.561
X172.474Y-105.631
X172.908Y-104.822
X173.46Y-103.991
T2
X110.7Y-78.316
X110.7Y-112.316
X111.403Y-76.619
X111.403Y-80.013
X111.403Y-110.619
X111.403Y-114.013
X113.1Y-75.916
X113.1Y-80.716
X113.1Y-109.916
X113.1Y-114.716
X114.797Y-76.619
X114.797Y-80.013
X114.797Y-110.619
X114.797Y-114.013
X115.5Y-78.316
X115.5Y-112.316
X169.7Y-78.316
X169.7Y-112.316
X170.403Y-76.619
X170.403Y-80.013
X170.403Y-110.619
X170.403Y-114.013
X172.1Y-75.916
X172.1Y-80.716
X172.1Y-109.916
X172.1Y-114.716
X173.797Y-76.619
X173.797Y-80.013
X173.797Y-110.619
X173.797Y-114.013
X174.5Y-78.316
X174.5Y-112.316
T3
X141.31Y-112.699
X143.85Y-112.699
T4
X119.665Y-78.938
X119.665Y-86.558
X119.665Y-91.638
X119.665Y-94.178
X127.285Y-78.938
X127.285Y-94.178
T5
X113.1Y-78.316
X113.1Y-112.316
X172.1Y-78.316
X172.1Y-112.316
M30
